<?xml version="1.0" standalone="no"?>
<!DOCTYPE svg PUBLIC "-//W3C//DTD SVG 20010904//EN"
 "http://www.w3.org/TR/2001/REC-SVG-20010904/DTD/svg10.dtd">
<svg version="1.0" xmlns="http://www.w3.org/2000/svg"
 width="512.000000pt" height="512.000000pt" viewBox="0 0 512.000000 512.000000"
 preserveAspectRatio="xMidYMid meet">

<g transform="translate(0.000000,512.000000) scale(0.100000,-0.100000)"
fill="#000000" stroke="none">
<path d="M2985 4798 c-1129 -569 -1863 -948 -1960 -1013 -239 -161 -468 -403
-604 -640 -134 -232 -207 -431 -258 -699 -25 -132 -29 -470 -8 -618 71 -498
322 -951 710 -1276 423 -355 1002 -527 1542 -457 602 78 1117 396 1450 895 27
41 285 482 573 980 497 857 524 908 528 960 4 64 -18 107 -70 141 -31 19 -43
20 -188 14 -85 -3 -166 -9 -179 -12 -19 -5 -22 -3 -17 13 3 11 89 354 191 764
169 676 185 748 176 782 -12 39 -58 84 -94 93 -16 4 -1511 -252 -1630 -279
-18 -4 8 28 161 202 60 68 64 75 59 110 -13 74 -81 132 -156 131 -37 0 -79
-17 -226 -91z m-689 -1544 c452 -93 819 -408 964 -827 53 -153 65 -234 65
-437 -1 -198 -13 -273 -70 -432 -128 -353 -428 -645 -795 -771 -178 -61 -415
-82 -590 -52 -153 26 -208 43 -365 110 -116 50 -296 184 -397 297 -153 172
-241 340 -300 573 -30 121 -33 414 -5 545 116 538 555 941 1099 1010 98 12
299 4 394 -16z"/>
<path d="M1920 2729 c-104 -14 -243 -62 -317 -111 -127 -82 -183 -173 -183
-299 0 -64 5 -85 30 -136 75 -150 222 -212 404 -168 141 34 206 91 296 266 94
183 105 321 32 402 -42 47 -132 63 -262 46z"/>
<path d="M2155 1666 c-37 -16 -82 -68 -91 -102 -11 -42 2 -110 26 -144 58 -82
189 -80 250 3 94 128 -41 306 -185 243z"/>
</g>
</svg>
